<?xml version="1.0" encoding="utf-8"?>
<!-- Generator: Adobe Illustrator 24.1.0, SVG Export Plug-In . SVG Version: 6.00 Build 0)  -->
<svg version="1.1" id="Layer_1" xmlns="http://www.w3.org/2000/svg" xmlns:xlink="http://www.w3.org/1999/xlink" x="0px" y="0px"
	 viewBox="0 0 512 512" style="enable-background:new 0 0 512 512;" xml:space="preserve">
<style type="text/css">
	.st0{fill:#050505;}
</style>
<g>
	<path class="st0" d="M27,456.06c0-133.65,0-266.62,0-400.11c135.18,0,269.95,0,405.49,0c0,27.07,0,54.37,0,82.46
		c-11.05,0-22.38,0-34.74,0c0-15.45,0-30.89,0-46.84c-112.03,0-223.04,0-334.71,0c0,109.46,0,218.92,0,328.98
		c111.07,0,222.08,0,334.02,0c0-19.33,0-38.86,0-59.38c12.22-1.03,23.57-0.42,35.57-0.42c0,31.87,0,63.27,0,95.32
		C297.75,456.06,162.76,456.06,27,456.06z"/>
	<path class="st0" d="M433.03,317.82c-12.23,0-23.13,0-35.02,0c0-16.48,0-32.83,0-50.16c-17.93,0-34.89,0-52.4,0
		c-0.89-12.34-0.64-23.68-0.19-35.71c17.23,0,33.96,0,51.68,0c0-16.97,0-33.32,0-50.29c12.33,0,23.67,0,36.02,0
		c0,16.37,0,32.71,0,49.71c17.71,0,34.44,0,51.88,0c0,11.99,0,23.34,0,35.71c-16.73,0-33.69,0-51.97,0
		C433.03,284.62,433.03,301.2,433.03,317.82z"/>
	<path class="st0" d="M266.08,297.18c11.06-6,20.77-12.09,27.8-21.62c17.57-23.8,18.19-63.23,1.23-89.23
		c-13.03-19.96-32.86-28.72-55.17-33.36c-8.28-1.72-16.66-2.19-25.1-2.17c-21.15,0.06-42.31,0.02-63.98,0.02
		c0,71.48,0,141.53,0,211.48c15.1,0,29.57,0,44.7,0c0-17.43,0-34.17,0-51.46c9.59,0,18.51,0,27.89,0
		c11.4,17.14,22.95,34.48,34.26,51.47c17.46,0,34.33,0,52.32,0C295.01,340.05,280.64,318.76,266.08,297.18z M260.34,239.21
		c-2.49,18.52-13.46,28.68-33.75,31.5c-5.83,0.81-11.77,0.87-17.67,1.1c-4.02,0.16-8.05,0.03-12.83,0.03c0-27.4,0-54.23,0-81.69
		c13.77-0.94,27.34-1.29,40.55,2.91c14.27,4.54,21.79,14.94,23.7,29.39C261.07,227.96,261.08,233.72,260.34,239.21z"/>
</g>
</svg>
